HIERARCHY
ROOT Root
{
	OFFSET 0.000000 0.000000 0.000000
	CHANNELS 6 Xposition Yposition Zposition Xrotation Yrotation Zrotation
	End Site
	{
		OFFSET 0.000000 0.000000 0.000000
	}
}
MOTION
Frames: 134
Frame Time: 0.033333
0.035268 -1.694927 0.907039 8.733700 -0.383900 178.674800 
0.044237 -1.696535 0.916252 9.249200 -0.410700 177.843000 
0.053713 -1.698643 0.921809 9.536500 -0.755500 176.925000 
0.063683 -1.700223 0.924695 9.795800 -1.307900 175.958400 
0.074011 -1.700941 0.925624 10.093400 -1.914800 175.032000 
0.084907 -1.700675 0.924494 10.350300 -2.585200 174.115800 
0.096797 -1.698960 0.921327 10.494800 -3.395000 173.081500 
0.109720 -1.695801 0.917034 10.534600 -4.258800 171.886900 
0.123254 -1.692138 0.912866 10.492400 -4.942200 170.595600 
0.137084 -1.688813 0.909376 10.338900 -5.312500 169.208600 
0.151422 -1.685732 0.906272 10.031300 -5.475000 167.625200 
0.166627 -1.682488 0.903211 9.619100 -5.632000 165.801300 
0.182850 -1.679141 0.900260 9.245400 -5.908600 163.809100 
0.200200 -1.675910 0.897438 8.973400 -6.349700 161.694700 
0.218986 -1.672796 0.894446 8.655100 -6.934100 159.401900 
0.239326 -1.669844 0.891329 8.102900 -7.497300 156.913200 
0.260756 -1.667203 0.888957 7.402100 -7.786400 154.383300 
0.282565 -1.664701 0.888106 6.880900 -7.724500 152.046000 
0.304322 -1.661803 0.888314 6.717100 -7.513100 150.024800 
0.325834 -1.658099 0.888192 6.740100 -7.385700 148.300500 
0.346807 -1.653476 0.886805 6.682800 -7.364400 146.813400 
0.366824 -1.647876 0.884263 6.464800 -7.300600 145.539200 
0.385529 -1.641160 0.881187 6.148600 -7.041700 144.485700 
0.402727 -1.633215 0.878274 5.795400 -6.534200 143.654300 
0.418490 -1.623962 0.876247 5.496900 -5.889500 143.030100 
0.433205 -1.613360 0.875612 5.415100 -5.363800 142.611100 
0.447291 -1.601577 0.876287 5.626400 -5.139200 142.411700 
0.460845 -1.589034 0.877786 5.979800 -5.118000 142.390500 
0.473756 -1.576126 0.879777 6.242400 -5.049900 142.399500 
0.486077 -1.562986 0.882233 6.336200 -4.830000 142.286900 
0.498031 -1.549573 0.885099 6.342100 -4.543200 142.036700 
0.509770 -1.535763 0.888030 6.346600 -4.276200 141.745400 
0.521371 -1.521318 0.890483 6.378700 -4.057600 141.488300 
0.533011 -1.506004 0.891794 6.429000 -3.946000 141.274100 
0.544972 -1.489786 0.891294 6.440700 -4.006900 141.090900 
0.557487 -1.472809 0.888594 6.321200 -4.201000 140.905900 
0.570776 -1.455212 0.883806 6.022500 -4.420000 140.633000 
0.585132 -1.437094 0.877438 5.582800 -4.620700 140.178700 
0.600819 -1.418539 0.870240 5.088800 -4.830100 139.517800 
0.617979 -1.399581 0.863133 4.645200 -5.061200 138.682900 
0.636641 -1.380343 0.856922 4.328500 -5.305700 137.698100 
0.656684 -1.361356 0.851746 4.064400 -5.549900 136.565300 
0.677708 -1.343401 0.847075 3.602700 -5.700100 135.289200 
0.699135 -1.326667 0.842693 2.779300 -5.574800 133.887000 
0.720593 -1.310381 0.839503 1.799500 -5.118000 132.398700 
0.742218 -1.293556 0.838802 1.082100 -4.590100 130.887700 
0.764461 -1.276035 0.840826 0.798100 -4.389700 129.403700 
0.787578 -1.258471 0.844451 0.724400 -4.644400 127.942400 
0.811347 -1.241450 0.848401 0.598200 -5.075900 126.465100 
0.835282 -1.224973 0.852330 0.460400 -5.313600 124.988600 
0.859033 -1.208677 0.856572 0.539800 -5.272500 123.608600 
0.882627 -1.192195 0.861106 0.919500 -5.166500 122.407900 
0.906297 -1.175299 0.865104 1.457400 -5.221300 121.419700 
0.930112 -1.157917 0.867428 1.965800 -5.459900 120.682900 
0.953775 -1.140061 0.867344 2.345800 -5.731900 120.248100 
0.976838 -1.121606 0.864939 2.588400 -5.880200 120.119700 
0.999096 -1.102208 0.861212 2.766300 -5.888200 120.268700 
1.020681 -1.081552 0.857753 3.030500 -5.902100 120.714700 
1.041657 -1.059701 0.855914 3.509100 -6.087100 121.524400 
1.061804 -1.037092 0.856155 4.176100 -6.460400 122.718100 
1.081075 -1.014270 0.858149 4.869900 -6.924200 124.229400 
1.099886 -0.991687 0.861370 5.446200 -7.445800 125.953700 
1.118507 -0.969587 0.865332 5.853900 -8.083300 127.779000 
1.136429 -0.948007 0.869404 6.072700 -8.815000 129.585300 
1.152914 -0.926948 0.872848 6.084400 -9.481200 131.285800 
1.168004 -0.906529 0.875261 5.947700 -9.950800 132.846700 
1.182505 -0.886821 0.876651 5.809600 -10.235300 134.210500 
1.197054 -0.867646 0.876897 5.774800 -10.405800 135.276900 
1.211699 -0.848787 0.875284 5.816100 -10.519300 136.057400 
1.226355 -0.830331 0.870854 5.834400 -10.645800 136.745500 
1.241100 -0.812510 0.863143 5.722400 -10.831300 137.480800 
1.256017 -0.795325 0.852373 5.361700 -11.006800 138.116900 
1.271204 -0.778617 0.839186 4.682800 -11.068300 138.397000 
1.286817 -0.762450 0.824296 3.786100 -11.056900 138.324200 
1.302725 -0.747090 0.808180 2.882700 -11.096500 138.196100 
1.318095 -0.732630 0.790743 2.060400 -11.120200 138.286700 
1.332019 -0.718965 0.771616 1.244100 -10.856100 138.639400 
1.344491 -0.706046 0.751014 0.407700 -10.161800 139.168400 
1.356230 -0.693953 0.729811 -0.379300 -9.202300 139.814600 
1.367602 -0.682668 0.708541 -1.146300 -8.247000 140.573000 
1.378369 -0.671904 0.687131 -1.990900 -7.468500 141.467500 
1.388420 -0.661126 0.665770 -2.778400 -6.950300 142.532100 
1.397790 -0.650027 0.644886 -3.209300 -6.660400 143.771000 
1.406075 -0.639064 0.623976 -3.290200 -6.400600 145.148300 
1.412728 -0.629026 0.601769 -3.361600 -6.001500 146.647100 
1.417866 -0.619930 0.577929 -3.560200 -5.557600 148.316000 
1.421900 -0.610939 0.553316 -3.678100 -5.267800 150.199800 
1.424589 -0.601510 0.528373 -3.604200 -5.113600 152.249100 
1.425410 -0.591784 0.503017 -3.415400 -4.943100 154.362700 
1.424694 -0.581894 0.477944 -3.035100 -4.788700 156.492400 
1.423561 -0.572087 0.453852 -2.393200 -4.825600 158.647200 
1.422857 -0.563456 0.429715 -1.840200 -5.040900 160.797400 
1.422664 -0.557047 0.404556 -1.740800 -5.179700 162.838400 
1.422618 -0.552359 0.380053 -1.843200 -5.045200 164.684600 
1.422329 -0.548325 0.357881 -1.764600 -4.666100 166.325300 
1.421681 -0.545493 0.336050 -1.749700 -4.121300 167.762000 
1.420846 -0.545023 0.312613 -2.078500 -3.376000 168.966500 
1.419979 -0.545777 0.291648 -2.178900 -2.437300 169.938300 
1.419098 -0.545132 0.279946 -1.386700 -1.538600 170.739100 
1.418341 -0.542806 0.278097 -0.175000 -0.964900 171.429900 
1.417960 -0.541058 0.279944 0.464300 -0.709300 171.983000 
1.417833 -0.541167 0.280789 0.438500 -0.529200 172.335300 
1.417594 -0.542046 0.280891 0.378700 -0.360100 172.529200 
1.417183 -0.542442 0.281308 0.492400 -0.325300 172.663600 
1.416891 -0.542529 0.281427 0.501500 -0.413500 172.758800 
1.416858 -0.542790 0.281046 0.370400 -0.450900 172.792200 
1.416873 -0.543212 0.281097 0.309200 -0.366900 172.842500 
1.416710 -0.543921 0.281732 0.320900 -0.259800 173.077000 
1.416360 -0.545275 0.282014 0.294800 -0.238300 173.570900 
1.415946 -0.546989 0.281549 0.286900 -0.338600 174.193100 
1.415621 -0.548249 0.280901 0.351300 -0.519000 174.702600 
1.415481 -0.548770 0.280579 0.379000 -0.655600 174.955300 
1.415489 -0.548942 0.280624 0.320300 -0.644600 174.997600 
1.415473 -0.549082 0.280850 0.289500 -0.558300 174.975900 
1.415351 -0.549204 0.280927 0.332000 -0.566600 174.985200 
1.415212 -0.549344 0.280657 0.349200 -0.681500 175.018300 
1.415156 -0.549526 0.280342 0.305900 -0.745200 175.035600 
1.415181 -0.549590 0.280393 0.281500 -0.685600 175.029400 
1.415222 -0.549471 0.280667 0.303600 -0.611700 175.019400 
1.415237 -0.549387 0.280728 0.318500 -0.624000 175.017500 
1.415227 -0.549463 0.280553 0.312900 -0.680000 175.019700 
1.415214 -0.549542 0.280469 0.319300 -0.697100 175.019700 
1.415214 -0.549521 0.280558 0.332500 -0.674200 175.021200 
1.415222 -0.549529 0.280617 0.325200 -0.659700 175.029900 
1.415230 -0.549615 0.280596 0.308300 -0.668400 175.038200 
1.415268 -0.549595 0.280632 0.308500 -0.677600 175.032700 
1.415346 -0.549379 0.280734 0.329600 -0.672800 175.020100 
1.415430 -0.549118 0.280759 0.365000 -0.664700 175.022200 
1.415471 -0.548975 0.280678 0.400000 -0.666400 175.039800 
1.415473 -0.548975 0.280624 0.400800 -0.673600 175.047300 
1.415458 -0.549087 0.280665 0.352400 -0.672200 175.031900 
1.415440 -0.549242 0.280734 0.298500 -0.661600 175.011500 
1.415423 -0.549331 0.280759 0.287800 -0.656200 175.002700 
1.415415 -0.549308 0.280754 0.306000 -0.660900 175.001500 
